<svg width="130" height="50" viewBox="0 0 130 50" fill="none" xmlns="http://www.w3.org/2000/svg">
<g clip-path="url(#clip0_346_2964)">
<path d="M117.946 40.7422C116.009 40.5989 113.92 40.1123 112.262 39.4179C111.887 39.2609 111.622 37.8331 111.433 37.7613L111.045 35.8495C110.995 34.1462 110.931 32.2643 110.903 31.6679L110.852 30.5832H112.241L112.418 31.9173C113.077 36.9015 115.71 39.4099 120.28 39.4099C123.315 39.4099 125.197 38.2715 126.145 35.8616C126.441 35.1098 126.486 34.7222 126.492 32.9002C126.499 30.8266 126.494 30.7931 126.01 29.8038C125.162 28.0677 124.304 27.492 120.029 25.7899C118.761 25.285 117.255 24.6359 116.682 24.3472C112.949 22.466 111.1 19.7969 111.107 16.3017C111.117 11.8302 113.606 8.60279 117.947 7.43452C119.457 7.02808 123.139 7.07238 124.714 7.51638C126.191 7.93245 128.145 8.70584 128.352 8.95722C128.44 9.06436 128.541 10.3299 128.587 11.8976C128.631 13.4114 128.691 15.0035 128.721 15.4354L128.776 16.2208H127.369L127.06 14.6454C126.34 10.9771 124.652 9.04366 121.744 8.55896C119.39 8.16649 116.538 9.0752 115.414 10.5748C114.56 11.7149 114.303 12.6079 114.303 14.4256C114.303 15.8707 114.338 16.0665 114.744 16.8731C115.272 17.9208 116.022 18.606 117.426 19.3233C118.41 19.8258 121.731 21.1581 122.001 21.1581C122.262 21.1581 125.246 22.6456 126.017 23.1604C128.162 24.5925 129.357 26.5145 129.783 29.2177C129.991 30.5391 130 30.9797 129.847 32.2041C129.5 34.9781 128.691 36.6971 126.984 38.2884C124.797 40.3283 122.133 41.0516 117.946 40.7419V40.7422ZM65.1636 40.5399C60.4287 39.6329 58.1899 37.1408 57.5668 32.0832C57.4705 31.3021 57.4105 26.6067 57.4105 19.8528V8.89004H53.8409V7.54383H65.591V8.88137L63.6946 8.92326L61.7983 8.96516L61.7549 18.6896C61.6981 31.3431 61.8411 33.3808 62.9434 35.6331C64.0308 37.8547 66.1318 38.9614 69.2627 38.9614C72.8135 38.9614 74.7927 37.6337 75.8603 34.5358C76.5434 32.5544 76.5959 31.5075 76.5969 19.8492L76.5976 8.89028H73.028V7.54383H81.6547V8.89028H78.3945L78.3481 20.8214C78.3021 32.6269 78.298 32.7654 77.9705 33.9495C77.0026 37.4481 75.0888 39.4083 71.7639 40.3069C70.2109 40.7265 66.7711 40.8481 65.1639 40.5404L65.1636 40.5399ZM83.6166 39.6791L83.6626 39.036L85.4475 39.0122L87.2324 38.9886L87.2702 23.9439L87.3082 8.89943L85.4855 8.85729L83.6628 8.8154L83.617 8.17949L83.5713 7.54383H90.8766C95.4964 7.54383 98.5751 7.60475 99.2516 7.70997C101.834 8.11159 103.598 9.25241 104.547 11.1341C105.365 12.757 105.617 14.7894 105.235 16.688C104.826 18.7242 103.982 19.9794 102.289 21.0682C101.144 21.8038 100.407 22.1084 98.9827 22.4344C98.3283 22.584 97.7374 22.7537 97.67 22.8113C97.6025 22.869 98.0039 22.9625 98.5623 23.019C104.308 23.6029 106.824 26.1347 106.824 31.3313C106.824 34.1922 106.149 36.0205 104.475 37.6927C103.448 38.7177 102.202 39.3986 100.446 39.8937C99.3244 40.2103 98.9832 40.2245 91.4253 40.2727L83.5706 40.3225L83.6166 39.6791ZM97.1689 38.7379C99.7079 38.0729 101.406 36.313 101.97 33.7624C102.325 32.1584 102.204 29.2179 101.731 27.9652C101.157 26.4417 100.188 25.2222 99.0073 24.5357C97.8269 23.8495 96.9712 23.7012 94.196 23.7012H91.6201V38.9611H93.9687C95.5706 38.9611 96.5879 38.8903 97.1689 38.7379ZM97.1607 22.0001C99.6203 21.2012 101.055 18.7447 101.03 15.3747C101.004 11.8598 99.2276 9.33067 96.5043 8.93145C96.0676 8.86764 94.79 8.83586 93.6653 8.8609L91.6201 8.90641V15.5305C91.6201 19.174 91.6702 22.2074 91.7316 22.2714C91.9254 22.4737 96.39 22.2502 97.1607 21.9998V22.0001Z" fill="#171321"/>
<path d="M22.7918 49.6195C22.3234 49.4835 22.3083 49.4541 22.3083 48.6725C22.3083 47.8816 22.2989 47.864 21.825 47.7715C20.9406 47.5991 19.4167 46.8992 18.705 46.3382C16.0829 44.2723 15.1845 41.0415 16.3651 37.9253C17.1199 35.9326 19.2027 34.1511 21.4552 33.5713C22.5435 33.2912 22.492 32.9777 21.3415 32.8814L20.4492 32.8066V31.3106L21.3786 31.266L22.3083 31.2215V27.4136C22.3083 25.3192 22.277 23.6056 22.2392 23.6056C22.2009 23.6056 21.0793 24.4977 19.7464 25.588C18.4134 26.6782 17.1394 27.7145 16.9153 27.891C16.6911 28.0675 16.5086 28.2695 16.5098 28.3398C16.511 28.4104 16.7388 28.7371 17.0162 29.0663C17.5054 29.6473 17.5134 29.6769 17.2817 30.072C17.1508 30.2959 16.8589 30.5439 16.6338 30.6227C16.2582 30.7544 16.1746 30.7079 15.6331 30.066C15.2074 29.5613 14.9965 29.4106 14.8783 29.5266C14.7593 29.6439 14.845 29.9687 15.1903 30.711C15.603 31.5978 15.6753 31.9373 15.734 33.2657C15.7896 34.5267 15.7468 34.9782 15.4915 35.8216C14.7894 38.1403 13.1088 39.8306 10.8031 40.5368C9.96515 40.7935 9.52813 40.8356 8.34879 40.774C6.70763 40.688 5.76088 40.369 4.42431 39.4516C3.95479 39.1292 3.51994 38.8684 3.45758 38.8718C3.39522 38.8752 3.11687 39.0736 2.83877 39.3127C2.3601 39.7244 2.31026 39.736 1.91177 39.5287C1.50196 39.3156 1.03894 38.6306 1.03894 38.2374C1.03894 38.1302 1.28622 37.8341 1.5884 37.5788L2.1381 37.1146L1.74178 36.1953C-2.68221e-05 32.1555 1.77404 27.7439 5.73512 26.2645C6.45265 25.9966 6.90676 25.9385 8.17832 25.9525C10.0164 25.9725 10.9182 26.2544 12.4527 27.2896C13.6669 28.1082 13.9674 27.9717 13.1524 26.9712C12.6007 26.2937 12.5921 26.2648 12.8244 25.8757C12.9559 25.6556 13.2439 25.4095 13.4644 25.3284C13.8314 25.1936 13.9183 25.2417 14.4803 25.8885L15.0945 26.5956L18.2925 23.9868C20.0512 22.552 21.4901 21.3078 21.4901 21.2219C21.4901 21.1362 20.0847 19.9253 18.3669 18.5312L15.2433 15.9965L14.8342 16.388C14.3088 16.8912 14.318 17.1862 14.8715 17.5977C15.4162 18.0029 15.4198 18.0749 14.925 18.6662L14.5325 19.1358L14.0627 18.6778C13.5012 18.1303 13.4401 18.1228 13.0707 18.5564C12.4681 19.2643 12.4635 19.359 13.0149 19.7365C13.2988 19.9308 13.5313 20.1651 13.5318 20.2566C13.533 20.4523 12.9629 21.2125 12.8155 21.2115C12.6804 21.2106 9.90062 18.9759 9.845 18.823C9.82092 18.757 10.5067 18.3142 11.3694 17.8389C12.2321 17.3639 12.9378 16.9232 12.9378 16.8597C12.9378 16.7961 12.7445 16.6056 12.508 16.4364L12.0782 16.1284L10.6287 16.9543C9.83127 17.4084 9.15444 17.7554 9.12434 17.7253C9.09449 17.6952 9.29698 16.9516 9.57412 16.0728L10.0783 14.4747L9.69812 14.174C9.48913 14.0086 9.25437 13.8947 9.17659 13.9207C9.09858 13.9467 8.80627 14.7028 8.52697 15.6006C8.24766 16.4987 7.99244 17.2598 7.95993 17.2926C7.89974 17.3528 4.90611 14.9353 4.90611 14.8265C4.90611 14.6835 5.56946 13.8812 5.68769 13.8812C5.75968 13.8812 6.05367 14.0618 6.34092 14.2821L6.86342 14.683L7.29778 14.2154C7.53664 13.9583 7.73215 13.7009 7.73215 13.6433C7.73215 13.5858 7.48415 13.3233 7.18125 13.0599L6.63034 12.5808L6.99536 12.1172C7.44273 11.549 7.50341 11.543 8.05672 12.0113C8.29991 12.2169 8.54936 12.3852 8.61148 12.3852C8.75499 12.3852 9.51922 11.5278 9.51031 11.3766C9.50646 11.314 8.94063 10.8255 8.25272 10.2907C6.86053 9.20838 6.75097 8.95195 7.36665 8.21564C8.13955 7.29177 7.40565 6.81189 16.21 13.9956C20.9698 17.8789 22.1404 18.8184 22.2206 18.8184C22.2688 18.8184 22.3083 17.1016 22.3083 15.0032V11.1883H20.821V12.6843H19.4822V11.1883H17.9949V12.6843H16.6562V8.64929L17.3629 8.9298C17.7515 9.0839 18.4994 9.38583 19.0245 9.60085C19.5497 9.81587 20.0353 9.9914 20.103 9.9914C20.1706 9.9914 20.2258 9.73906 20.225 9.43038L20.2241 8.86936L18.5682 8.21179L16.9121 7.55398L18.5692 6.88701L20.226 6.22005V5.63736C20.226 5.31664 20.194 5.05443 20.1547 5.05443C20.1155 5.05443 19.3958 5.33109 18.556 5.66915L16.8423 6.3585C16.6991 6.41581 16.6564 5.96579 16.6564 4.3971V2.36154H17.9952V3.85751H19.4822V2.36154H20.821V3.85751H22.3083V0.428077L22.8813 0.273014C23.2858 0.163459 23.5926 0.166107 23.9227 0.281682L24.3908 0.445894V9.64804C24.3908 17.4301 24.4226 18.8379 24.5969 18.7707C24.7796 18.7002 28.8418 15.4232 35.8466 9.695C37.1165 8.65675 38.2383 7.75575 38.3394 7.69267C38.6226 7.5169 39.0784 7.72276 39.3897 8.16773C40.008 9.05091 39.977 9.13229 38.6009 10.2329C37.9024 10.7915 37.3308 11.3051 37.3308 11.3742C37.3308 11.5659 37.9641 12.3852 38.1124 12.3852C38.1844 12.3852 38.4803 12.2032 38.7702 11.9807L39.2973 11.5765L39.7186 12.0929L40.1405 12.6096L39.5544 13.1331L38.9683 13.6568L39.4333 14.1673C39.7516 14.5169 39.9558 14.6348 40.081 14.5414C41.0872 13.7902 41.0391 13.8025 41.4221 14.194C41.616 14.3924 41.7953 14.6322 41.8209 14.7268C41.8717 14.9161 38.9773 17.3465 38.8188 17.2478C38.7646 17.2141 38.4976 16.4429 38.2253 15.5339C37.953 14.625 37.6571 13.8834 37.5677 13.8863C37.4784 13.8889 37.2499 14.0211 37.0604 14.1803L36.7154 14.4694L37.2287 16.1202C37.5111 17.028 37.7098 17.771 37.6703 17.771C37.6308 17.771 36.9301 17.3937 36.1132 16.9326L34.628 16.094L34.1956 16.5105L33.7632 16.9273L34.6918 17.4436C35.2023 17.7277 35.9441 18.1433 36.3402 18.3674L37.0599 18.7751L35.5076 20.05L33.9551 21.3249L33.539 20.8005L33.1229 20.2759L33.6912 19.796L34.2594 19.3161L33.8441 18.7681C33.6153 18.4666 33.3957 18.2198 33.3558 18.2198C33.316 18.2198 33.0302 18.4214 32.7211 18.6677L32.1588 19.1155L31.7558 18.5839L31.3525 18.0522L31.9144 17.5635L32.4764 17.0749L32.0437 16.5298C31.6739 16.0634 31.5742 16.0109 31.3551 16.1672C30.7245 16.6167 25.1502 21.1453 25.143 21.2139C25.1382 21.2563 25.5193 21.5929 25.9896 21.962C26.46 22.3312 27.9348 23.5252 29.2668 24.6154C30.5988 25.7057 31.716 26.5978 31.749 26.5978C31.782 26.5978 32.0254 26.2949 32.2898 25.9246C32.8583 25.1281 33.1696 25.0823 33.7882 25.7045L34.2387 26.1576L33.8477 26.6397C33.3399 27.2647 33.0909 27.7689 33.2236 27.9023C33.2816 27.9606 33.4145 27.9435 33.519 27.8643C34.5079 27.1123 35.7063 26.4237 36.339 26.2438C40.0114 25.2003 43.3501 26.6002 44.9541 29.8558L45.5857 31.1384V33.0196C45.5857 34.9632 45.5744 35.0126 44.6811 37.0014C44.6426 37.0869 44.8812 37.3561 45.2113 37.5998C45.7095 37.9677 45.7964 38.1064 45.7246 38.4167C45.6312 38.82 45.1528 39.4037 44.7259 39.6351C44.5191 39.7473 44.3286 39.6649 43.8571 39.2588L43.2533 38.7387L42.575 39.2595C41.1852 40.3266 39.749 40.813 38.0059 40.807C35.9439 40.7997 34.4496 40.1889 33.0916 38.7986C32.037 37.7182 31.4724 36.7265 31.1644 35.4118C30.7705 33.7312 30.9181 32.2441 31.6424 30.5933C31.9246 29.9502 31.9795 29.6832 31.855 29.5579C31.7305 29.4327 31.6142 29.4826 31.4033 29.7513C30.4931 30.9114 30.5935 30.849 30.0754 30.5796C29.8168 30.445 29.5317 30.1965 29.4416 30.0272C29.2712 29.707 29.308 29.6227 30.0368 28.6733L30.3383 28.2804L27.5159 25.9814C25.9636 24.7168 24.6241 23.6591 24.5396 23.6307C24.4353 23.5957 24.3985 24.8052 24.4252 27.37L24.4649 31.1608L25.3539 31.2066C26.3165 31.2564 26.4685 31.3727 26.4685 32.0585C26.4685 32.7444 26.3165 32.8605 25.3539 32.9103C24.0862 32.9758 24.1779 33.2804 25.5887 33.6895C27.4636 34.2337 28.799 35.218 29.8613 36.8396C31.1447 38.7984 31.2843 41.6119 30.2088 43.8391C29.4763 45.356 27.5212 47.0102 25.9046 47.4809C24.3518 47.9329 24.3908 47.9011 24.3908 48.7219C24.3908 49.4137 24.3621 49.4683 23.9222 49.6227C23.393 49.8081 23.4419 49.8083 22.7918 49.6195ZM22.3362 45.3035C22.3786 44.6929 22.4243 44.6231 22.8659 44.4964C23.1628 44.4115 23.536 44.4115 23.8329 44.4964C24.2793 44.6245 24.3219 44.6922 24.3908 45.3784C24.4594 46.0651 24.4934 46.1186 24.8369 46.0825C25.561 46.0064 27.023 45.1538 27.7263 44.3977C28.8178 43.2237 29.2105 42.2177 29.2139 40.5862C29.2155 39.8455 29.1291 38.9855 29.0219 38.6749C28.2929 36.5608 25.7009 35.9651 24.5796 37.6535C23.9114 38.6595 24.2807 40.2144 25.3154 40.7526C25.7709 40.9895 26.8708 40.9861 27.4027 40.7463C27.6331 40.6423 27.6627 40.7232 27.6627 41.4532C27.6627 42.243 27.6435 42.2842 27.1944 42.4416C26.1258 42.8163 24.5165 42.4537 23.8818 41.6947C23.6814 41.4554 23.4891 41.2594 23.4544 41.2594C23.4195 41.2594 23.157 41.4814 22.8707 41.753C22.0417 42.5394 20.8145 42.7951 19.6111 42.4325L19.0361 42.2591V41.4441C19.0361 40.7193 19.065 40.643 19.2963 40.7559C19.4396 40.8257 19.9705 40.8835 20.4767 40.884C21.2943 40.8852 21.448 40.8359 21.8558 40.4427C22.7694 39.5621 22.7684 38.0717 21.8544 37.2128C20.4771 35.9186 18.2162 36.9892 17.6932 39.1831C17.1546 41.4407 18.0554 43.9041 19.881 45.1677C20.6204 45.6794 22.0287 46.233 22.1874 46.074C22.2435 46.0179 22.3104 45.6712 22.3362 45.3035ZM10.4946 38.8745C12.0838 38.3127 13.4976 36.9668 13.8391 35.6909C14.1169 34.6533 13.9002 33.8099 13.1663 33.0719C12.5993 32.5012 12.456 32.4326 11.8346 32.4326C10.6389 32.4326 9.74628 33.1634 9.56425 34.2915C9.43953 35.0653 9.97526 36.0732 10.7041 36.4361L11.281 36.7233L10.6694 37.196C10.3331 37.456 9.96804 37.6689 9.85848 37.6689C9.74869 37.6689 9.36296 37.3944 9.00082 37.0585C8.18578 36.3027 7.80559 35.3819 7.93031 34.4655L8.02037 33.8058L7.28502 33.7042C6.15745 33.5482 5.04577 32.6163 4.60899 31.4611C4.46717 31.0859 4.50353 31.0041 5.01422 30.55C5.3229 30.2757 5.61497 30.0484 5.66337 30.045C5.71176 30.0417 5.82902 30.2988 5.92341 30.6169C6.15552 31.3951 7.08951 32.0585 7.95319 32.0585C9.12531 32.0585 10.112 31.0607 10.112 29.8753C10.112 28.5763 9.01455 27.644 7.48872 27.6466C4.73396 27.6512 2.34734 30.8803 2.83709 33.9399C3.00443 34.9849 3.33141 35.8734 3.54859 35.8734C3.62805 35.8734 3.89628 35.7019 4.14404 35.492C4.57769 35.125 4.61212 35.1195 5.05347 35.3492C5.30581 35.4804 5.62557 35.8267 5.76401 36.1187L6.01587 36.6499L5.46087 37.1613C5.1558 37.4425 4.90611 37.6985 4.90611 37.73C4.90611 37.8979 6.52849 38.7984 7.11937 38.9585C8.16219 39.2412 9.55558 39.2065 10.4946 38.8742V38.8745ZM40.4092 38.6515C40.9163 38.4216 41.4518 38.0992 41.5991 37.9349C41.8599 37.6448 41.8541 37.6255 41.3839 37.2304C40.8238 36.7597 40.7759 36.3723 41.2095 35.818C41.7814 35.0867 42.0496 35.0424 42.7038 35.5712L43.2879 36.0434L43.6188 35.3227C43.8909 34.7299 43.9496 34.3362 43.9496 33.1058C43.9496 31.7671 43.9053 31.5191 43.5297 30.7496C42.8988 29.4571 41.7968 28.3225 40.8127 27.9522C39.0584 27.292 37.5586 27.7056 36.9053 29.0302C36.4426 29.9692 36.5545 30.6046 37.3188 31.3729C38.2939 32.3541 39.5503 32.3233 40.4467 31.2961C40.6964 31.0103 40.9006 30.6104 40.9006 30.4077C40.9006 29.9295 41.014 29.9425 41.6846 30.4984C42.3183 31.0238 42.3482 31.1835 41.9562 31.9523C41.4573 32.9308 40.4154 33.6288 39.3926 33.67L38.794 33.6941L38.8886 34.3278C39.0317 35.288 38.7124 36.1373 37.8998 36.9581C37.5128 37.3491 37.0888 37.6689 36.9573 37.6689C36.8259 37.6689 36.4534 37.4546 36.1293 37.1926L35.5404 36.7166L35.9521 36.5384C36.6754 36.2259 37.0693 35.6572 37.1502 34.8074C37.2441 33.8229 36.896 33.1193 36.1168 32.7194C34.9663 32.129 33.8783 32.4464 33.2284 33.5619C32.3344 35.0964 33.1899 37.1801 35.2004 38.3655C36.2545 38.9867 36.9966 39.1665 38.2975 39.116C39.2125 39.0803 39.7006 38.9729 40.4092 38.6515Z" fill="#171321"/>
</g>
<defs>
<clipPath id="clip0_346_2964">
<rect width="130" height="49.972" fill="white"/>
</clipPath>
</defs>
</svg>
