<svg version="1.1" id="Layer_1" xmlns="http://www.w3.org/2000/svg" xmlns:xlink="http://www.w3.org/1999/xlink" x="0px" y="0px"
	 viewBox="0 0 290.2 45.7" enable-background="new 0 0 290.2 45.7" xml:space="preserve">
<path fill="#171321" d="M31.3,10.2C29.1,9.4,27,8.8,25,8.3c-2-0.4-3.9-0.6-5.6-0.6c-2.2,0-3.8,0.4-5,1.1s-1.8,1.6-1.8,2.7c0,0.8,0.3,1.5,1,2.1
	s1.8,1.1,3.2,1.7l8.2,3.9c3.2,1.5,5.6,3.2,7.4,5.2c1.7,2,2.5,4.4,2.5,7.2c-0.1,4.3-1.8,7.8-5.3,10.3c-3.4,2.5-8.1,3.7-13.9,3.8
	c-2.2,0-4.5-0.1-7.1-0.4C6.2,45.1,3.7,44.6,1,44v-9c2.6,0.9,5,1.5,7.4,1.9c2.3,0.4,4.4,0.6,6.3,0.6c2.4,0,4.2-0.4,5.4-1.2
	c1.3-0.7,1.9-1.7,1.9-3c0-0.7-0.2-1.3-0.7-1.8c-0.5-0.6-1.3-1.1-2.3-1.6l-9.1-3.8c-3.4-1.5-5.9-3.3-7.5-5.5C0.8,18.5,0,16.1,0,13.2
	c0.1-4,1.8-7.3,5-9.6C8.3,1.2,12.8,0.1,18.4,0c2,0,4.2,0.2,6.4,0.5c2.3,0.3,4.4,0.7,6.4,1.1C31.3,1.6,31.3,10.2,31.3,10.2z M54,45
	H40.7V0.8H54V45z M96.8,9H77v9.8h17.1v7.4H77v10.3h20.2v8.6H64.3V0.8h32.5V9L96.8,9z M158.9,45h-12.4V15.8l-12.9,29.5H126
	l-12.4-29.5v29.1h-9V0.8h16.2l11.1,27l11.6-27h15.4L158.9,45L158.9,45z M201.7,9H182v9.8h17.1v7.4H182v10.3h20.1v8.6h-32.9V0.8h32.5
	C201.7,0.8,201.7,9,201.7,9z M248.4,45h-14.1l-15.8-28.3V45h-9V0.8H224l15.4,27.8V0.8h9V45L248.4,45z M286.6,10.2
	c-2.2-0.8-4.3-1.4-6.3-1.9c-2-0.4-3.9-0.6-5.6-0.6c-2.2,0-3.9,0.4-5.1,1.1s-1.8,1.6-1.8,2.7c0,0.8,0.3,1.5,0.9,2.1s1.7,1.1,3.4,1.7
	l8.2,3.9c3.2,1.5,5.6,3.2,7.4,5.3c1.7,2,2.5,4.5,2.5,7.5c-0.1,4.1-1.8,7.5-5.3,9.9c-3.4,2.5-8.2,3.7-14,3.8c-2.1,0-4.4-0.1-7-0.4
	c-2.4-0.2-4.9-0.7-7.6-1.3v-9c2.6,0.9,5,1.5,7.4,1.9c2.3,0.4,4.4,0.6,6.3,0.6c2.4,0,4.1-0.4,5.4-1.1c1.2-0.7,1.8-1.6,1.8-2.7
	c0-0.8-0.2-1.6-0.7-2.2s-1.3-1.2-2.3-1.6l-9-3.8c-3.4-1.5-5.8-3.2-7.5-5.3c-1.5-2-2.3-4.5-2.3-7.6c0.1-4,1.7-7.3,4.9-9.6
	c3.3-2.4,7.8-3.5,13.4-3.6c1.9,0,4,0.2,6.2,0.5s4.4,0.7,6.7,1.1V10.2L286.6,10.2z"/>
</svg>
